# xmcd CD database file
#
# Track frame offsets:
#	150
#	12159
#	24697
#	38570
#	47647
#	59850
#	71990
#	90681
#	107779
#	121870
#	139423
#	155375
#	175605
#	195287
#	206043
#	219681
#	238279
#	253042
#
# Disc length: 3516 seconds
#
# Revision: 0
# Processed by: cddbd v1.4PL0 Copyright (c) Steve Scherf et al.
# Submitted via: CDex 1.50Beta7
#
DISCID=0a0dba12
DTITLE=The South Rowan Jazz Band - April 3 2003
DYEAR=2003
DGENRE=Jazz
TTITLE0=Respect
TTITLE1=Sing, Sing, Sing
TTITLE2=Does Anybody Really Know What Time It Is
TTITLE3=The Preacher Man
TTITLE4=America, The Beautiful
TTITLE5=Leap Frog
TTITLE6=Jungle Boogie
TTITLE7=Smooth
TTITLE8=God Bless The USA
TTITLE9=25 or 6 to 4
TTITLE10=There You'll Be
TTITLE11=Groovin' Hard
TTITLE12=Brown Eyed Girl
TTITLE13=It Don't Mean A Thing
TTITLE14=A String Of Pearls
TTITLE15=When The Saints Come Swingin' In
TTITLE16=Go Tell It On The Mountain
TTITLE17=Boogie Woogie Bugle Boy
EXTD=YEAR: 2003
EXTT0=
EXTT1=
EXTT2=
EXTT3=
EXTT4=
EXTT5=
EXTT6=
EXTT7=
EXTT8=
EXTT9=
EXTT10=
EXTT11=
EXTT12=
EXTT13=
EXTT14=
EXTT15=
EXTT16=
EXTT17=
PLAYORDER=
